<svg id="visual" viewBox="0 0 960 540" width="960" height="540" xmlns="http://www.w3.org/2000/svg" xmlns:xlink="http://www.w3.org/1999/xlink" version="1.1"><rect x="0" y="0" width="960" height="540" fill="#080719"></rect><defs><linearGradient id="grad1_0" x1="43.8%" y1="0%" x2="100%" y2="100%"><stop offset="14.444444444444446%" stop-color="#9677ff" stop-opacity="1"></stop><stop offset="85.55555555555554%" stop-color="#9677ff" stop-opacity="1"></stop></linearGradient></defs><defs><linearGradient id="grad1_1" x1="43.8%" y1="0%" x2="100%" y2="100%"><stop offset="14.444444444444446%" stop-color="#9677ff" stop-opacity="1"></stop><stop offset="85.55555555555554%" stop-color="#5a52ad" stop-opacity="1"></stop></linearGradient></defs><defs><linearGradient id="grad1_2" x1="43.8%" y1="0%" x2="100%" y2="100%"><stop offset="14.444444444444446%" stop-color="#2c2e5e" stop-opacity="1"></stop><stop offset="85.55555555555554%" stop-color="#5a52ad" stop-opacity="1"></stop></linearGradient></defs><defs><linearGradient id="grad1_3" x1="43.8%" y1="0%" x2="100%" y2="100%"><stop offset="14.444444444444446%" stop-color="#2c2e5e" stop-opacity="1"></stop><stop offset="85.55555555555554%" stop-color="#080719" stop-opacity="1"></stop></linearGradient></defs><defs><linearGradient id="grad2_0" x1="0%" y1="0%" x2="56.3%" y2="100%"><stop offset="14.444444444444446%" stop-color="#9677ff" stop-opacity="1"></stop><stop offset="85.55555555555554%" stop-color="#9677ff" stop-opacity="1"></stop></linearGradient></defs><defs><linearGradient id="grad2_1" x1="0%" y1="0%" x2="56.3%" y2="100%"><stop offset="14.444444444444446%" stop-color="#5a52ad" stop-opacity="1"></stop><stop offset="85.55555555555554%" stop-color="#9677ff" stop-opacity="1"></stop></linearGradient></defs><defs><linearGradient id="grad2_2" x1="0%" y1="0%" x2="56.3%" y2="100%"><stop offset="14.444444444444446%" stop-color="#5a52ad" stop-opacity="1"></stop><stop offset="85.55555555555554%" stop-color="#2c2e5e" stop-opacity="1"></stop></linearGradient></defs><defs><linearGradient id="grad2_3" x1="0%" y1="0%" x2="56.3%" y2="100%"><stop offset="14.444444444444446%" stop-color="#080719" stop-opacity="1"></stop><stop offset="85.55555555555554%" stop-color="#2c2e5e" stop-opacity="1"></stop></linearGradient></defs><g transform="translate(960, 0)"><path d="M0 270C-29.9 270.1 -59.9 270.2 -83.1 255.8C-106.4 241.4 -122.9 212.6 -138.7 190.9C-154.6 169.3 -169.7 154.9 -191.7 139.3C-213.7 123.7 -242.6 106.9 -256.8 83.4C-271 60 -270.5 30 -270 0L0 0Z" fill="#1a1d3a"></path><path d="M0 202.5C-22.5 202.6 -44.9 202.7 -62.3 191.9C-79.8 181.1 -92.2 159.4 -104 143.2C-115.9 127 -127.3 116.2 -143.8 104.5C-160.3 92.8 -182 80.1 -192.6 62.6C-203.2 45 -202.9 22.5 -202.5 0L0 0Z" fill="#414085"></path><path d="M0 135C-15 135.1 -29.9 135.1 -41.6 127.9C-53.2 120.7 -61.4 106.3 -69.4 95.5C-77.3 84.6 -84.9 77.5 -95.9 69.7C-106.9 61.8 -121.3 53.4 -128.4 41.7C-135.5 30 -135.2 15 -135 0L0 0Z" fill="#7665d5"></path><path d="M0 67.5C-7.5 67.5 -15 67.6 -20.8 64C-26.6 60.4 -30.7 53.1 -34.7 47.7C-38.6 42.3 -42.4 38.7 -47.9 34.8C-53.4 30.9 -60.7 26.7 -64.2 20.9C-67.7 15 -67.6 7.5 -67.5 0L0 0Z" fill="#9677ff"></path></g><g transform="translate(0, 540)"><path d="M0 -270C29.1 -268.9 58.2 -267.8 83.4 -256.8C108.7 -245.7 130.1 -224.7 148.1 -203.9C166.1 -183 180.7 -162.4 195 -141.7C209.3 -121 223.4 -100.2 235.9 -76.6C248.3 -53 259.2 -26.5 270 0L0 0Z" fill="#1a1d3a"></path><path d="M0 -202.5C21.8 -201.7 43.6 -200.9 62.6 -192.6C81.5 -184.3 97.6 -168.5 111.1 -152.9C124.6 -137.3 135.5 -121.8 146.2 -106.2C157 -90.7 167.5 -75.2 176.9 -57.5C186.2 -39.8 194.4 -19.9 202.5 0L0 0Z" fill="#414085"></path><path d="M0 -135C14.5 -134.5 29.1 -133.9 41.7 -128.4C54.3 -122.9 65.1 -112.4 74.1 -101.9C83.1 -91.5 90.3 -81.2 97.5 -70.8C104.6 -60.5 111.7 -50.1 117.9 -38.3C124.2 -26.5 129.6 -13.3 135 0L0 0Z" fill="#7665d5"></path><path d="M0 -67.5C7.3 -67.2 14.5 -67 20.9 -64.2C27.2 -61.4 32.5 -56.2 37 -51C41.5 -45.8 45.2 -40.6 48.7 -35.4C52.3 -30.2 55.8 -25.1 59 -19.2C62.1 -13.3 64.8 -6.6 67.5 0L0 0Z" fill="#9677ff"></path></g></svg>