<?xml version="1.0" encoding="utf-8"?>
<!-- Generator: Adobe Illustrator 25.3.1, SVG Export Plug-In . SVG Version: 6.00 Build 0)  -->
<svg version="1.1" id="layer" xmlns="http://www.w3.org/2000/svg" xmlns:xlink="http://www.w3.org/1999/xlink" x="0px" y="0px"
	 viewBox="0 0 652 112" style="enable-background:new 0 0 652 112;" xml:space="preserve">
<style type="text/css">
	.st0{fill:#17181B;}
</style>
<g>
	<path class="st0" d="M108.6,65.7c-1.8,1.1-3.9,1.3-5.5,0.4c-2-1.2-3.2-3.9-3.2-7.6V47.2c0-5.4-2.1-9.3-5.7-10.3
		c-6.1-1.8-10.7,5.7-12.4,8.5L71,62.7V41.4c-0.1-4.9-1.7-7.8-4.7-8.7c-2-0.6-5-0.3-7.9,4.1L34.3,75.4c-3.2-6.1-4.9-12.9-4.9-19.8
		c0-23.3,18.7-42.2,41.6-42.2s41.6,18.9,41.6,42.2v0.1v0.1C112.8,60.3,111.4,63.9,108.6,65.7L108.6,65.7z M121.8,55.6L121.8,55.6
		v-0.1v-0.1C121.7,27.1,98.9,4,71,4C43,4,20.2,27.1,20.2,55.6C20.2,84,43,107.2,71,107.2c12.9,0,25.1-4.9,34.5-13.8
		c1.9-1.8,2-4.7,0.2-6.6c-1.7-1.9-4.6-2-6.5-0.3c0,0,0,0-0.1,0.1c-7.6,7.2-17.8,11.3-28.3,11.3c-12.3,0-23.3-5.4-30.9-14l21.7-34.8
		v16.1c0,7.7,3,10.2,5.5,10.9c2.5,0.7,6.3,0.2,10.4-6.3l11.9-19.3c0.4-0.6,0.7-1.2,1.1-1.6v9.8c0,7.2,2.9,13,7.9,15.8
		c4.5,2.6,10.2,2.3,14.9-0.6C119.1,70.1,122.2,63.5,121.8,55.6z M192.6,38c1.2,0.7,2.3,2.4,2.3,3.9c0,2.4-2,4.4-4.3,4.4
		c-0.6,0-1.1-0.2-1.6-0.3c-2.7-2-6.1-3.3-9.7-3.3c-8.5,0-14.3,6.9-14.3,15.5s5.9,15.4,14.3,15.4c4.2,0,8-1.7,10.8-4.4
		c0.7-0.5,1.6-0.8,2.5-0.8c2.3,0,4.1,1.8,4.1,4.1c0,1.5-0.9,2.8-2,3.5c-4.1,3.5-9.6,5.8-15.3,5.8c-13,0-23.6-10.7-23.6-23.9
		S166.4,34,179.4,34C184.2,33.9,188.8,35.4,192.6,38z M216.4,48c8.9,0,16.3,7.5,16.3,16.8c0,9.2-7.5,17.1-16.3,17.1
		c-9.3,0-17-7.8-17-17.1C199.4,55.5,207.1,48,216.4,48z M216.3,73.6c3.9,0,7.2-3.7,7.2-8.7s-3.3-8.2-7.2-8.2c-4.2,0-7.7,3.1-7.7,8.2
		C208.6,69.8,212.1,73.6,216.3,73.6z M238.3,76.7V53.1c0-2.6,2-4.7,4.6-4.7c2.5,0,4.6,2.1,4.6,4.7v23.6c0,2.6-2.1,4.7-4.6,4.7
		S238.3,79.2,238.3,76.7z M237.6,39.5c0-3.1,2.4-5.5,5.3-5.5c3,0,5.4,2.5,5.4,5.5s-2.4,5.4-5.4,5.4
		C239.9,44.8,237.6,42.4,237.6,39.5z M265.1,63.9v12.8c0,2.6-2.1,4.7-4.6,4.7s-4.6-2.1-4.6-4.7V52c0-2,1.6-3.6,3.6-3.6
		s3.5,1.7,3.5,3.6c3.7-3.5,7-4,10.1-4c9.2,0,13.3,6.9,13.3,14.8v13.9c0,2.6-2.1,4.7-4.6,4.7s-4.6-2.1-4.6-4.7V63.9
		c0-4-0.5-7.4-6.3-7.4C266.8,56.5,265.1,59.9,265.1,63.9L265.1,63.9z M316.2,68.8c-1.1,0-1.8-0.5-2.4-1.2L303.1,56v20.7
		c0,2.6-2.1,4.7-4.6,4.7s-4.6-2.1-4.6-4.7v-41c0.3-0.7,1-1.2,1.7-1.2c0.8,0,1.5,0.7,2,1.2l17.1,19.2c0.5,0.6,1.1,0.9,1.5,0.9
		c0.3,0,1-0.3,1.5-0.9l17.1-19.2c0.5-0.5,1.1-1.2,2-1.2c0.8,0,1.5,0.5,1.7,1.2v41c0,2.6-2,4.7-4.6,4.7c-2.5,0-4.6-2.1-4.6-4.7V56
		l-10.7,11.6C317.8,68.3,317.1,68.8,316.2,68.8L316.2,68.8z M360.4,73.6c4.1,0,7.6-3.7,7.6-8.7s-3.6-8.3-7.6-8.3s-7.3,3.4-7.3,8.3
		C353.1,69.7,356.3,73.6,360.4,73.6z M370.2,77.8l-0.2-1.1c-1.8,3.5-7.5,5.1-11.1,5.1c-8.6,0-15-7.8-15-17.1
		c0-9.2,6.5-16.8,15.5-16.8c1.5,0,6.7,0.4,10.7,5.1l0.2-1.1c0-2,1.5-3.6,3.5-3.6s3.6,1.7,3.6,3.6v25.8c0,2-1.6,3.6-3.6,3.6
		C371.7,81.4,370.2,79.7,370.2,77.8L370.2,77.8z M402.7,56.5h-1c-5.8,0.3-6.9,3.6-6.9,7.4v12.8c0,2.6-2.1,4.7-4.6,4.7
		s-4.6-2.1-4.6-4.7V52c0-2,1.6-3.6,3.6-3.6s3.5,1.7,3.5,3.6c3.4-3.2,6.2-3.9,9-4h0.9c2.2,0,4.2,1.9,4.2,4.3
		C406.9,54.5,404.9,56.5,402.7,56.5L402.7,56.5z M438.2,74.5c0.4,0.7,0.7,1.4,0.7,2.2c0,2.4-2.2,4.6-4.6,4.6c-1.6,0-3-1.2-4.1-2.6
		l-10.6-12.3v10.2c0,2.6-2.1,4.7-4.6,4.7s-4.6-2.1-4.6-4.7V39.1c0-2.6,2-4.7,4.6-4.7s4.6,2.1,4.6,4.7v23.4l10.6-11.7
		c1.1-1.2,2.4-2.5,4-2.5c2.3,0,4.4,2.1,4.4,4.5c0,0.7-0.2,1.5-0.6,2.1l-8.4,9.2L438.2,74.5L438.2,74.5z M456.2,56.6
		c-2.5,0-6.6,1.3-6.6,5.2h13.3C462.8,57.9,458.6,56.6,456.2,56.6L456.2,56.6z M468.2,67.7h-18.6c0,5.5,5.3,6.4,7.6,6.4
		c1.7,0,4.1-0.3,6-1.2c0.6-0.4,1.5-0.7,2.4-0.7c2,0,3.7,1.7,3.7,3.8c0,1.4-0.9,2.6-2,3.3c-2.8,2.1-6.5,2.6-10,2.6
		c-9.3,0-17-5-17-16.7C440.3,56,445,48,456,48c8.9,0,15.6,5.8,15.8,16.1C471.8,66,470.2,67.7,468.2,67.7L468.2,67.7z M493.8,81.8
		h-2.5c-7,0-11.1-3.1-11.1-14V56.5h-2.4c-2.2,0-4.1-2-4.1-4.2c0-2.4,2-4.3,4.1-4.3h2.4v-8.7c0-2.6,2-4.7,4.6-4.7
		c2.5,0,4.6,2.1,4.6,4.7V48h3.8c2.2,0,4.1,1.9,4.1,4.3c0,2.2-2,4.2-4.1,4.2h-3.8V66c0,6.3,0.3,7.6,3.1,7.6h1.3
		c2.2,0,4.1,1.8,4.1,4.1C497.9,79.9,496,81.8,493.8,81.8L493.8,81.8z M538.3,38c1.2,0.7,2.3,2.4,2.3,3.9c0,2.4-2,4.4-4.3,4.4
		c-0.6,0-1.1-0.2-1.6-0.3c-2.7-2-6.1-3.3-9.7-3.3c-8.5,0-14.3,6.9-14.3,15.5s5.9,15.4,14.3,15.4c4.2,0,8-1.7,10.8-4.4
		c0.7-0.5,1.6-0.8,2.5-0.8c2.3,0,4.1,1.8,4.1,4.1c0,1.5-0.9,2.8-2,3.5c-4.1,3.5-9.6,5.8-15.3,5.8c-13,0-23.6-10.7-23.6-23.9
		S512.1,34,525.1,34C529.9,33.9,534.6,35.4,538.3,38L538.3,38z M561.6,73.6c4.1,0,7.6-3.7,7.6-8.7s-3.6-8.3-7.6-8.3
		c-4.1,0-7.3,3.4-7.3,8.3C554.3,69.7,557.6,73.6,561.6,73.6L561.6,73.6z M571.4,77.8l-0.2-1.1c-1.8,3.5-7.5,5.1-11.1,5.1
		c-8.6,0-15-7.8-15-17.1c0-9.2,6.5-16.8,15.5-16.8c1.5,0,6.7,0.4,10.7,5.1l0.2-1.1c0-2,1.5-3.6,3.5-3.6s3.6,1.7,3.6,3.6v25.8
		c0,2-1.6,3.6-3.6,3.6C572.9,81.4,571.4,79.7,571.4,77.8z M603.7,73.6c4.1,0,7.3-3.9,7.3-8.7c0-5-3.3-8.3-7.3-8.3
		c-4.1,0-7.6,3.3-7.6,8.3S599.6,73.6,603.7,73.6z M596.1,79.1v11.7c0,2.6-2.1,4.7-4.6,4.7s-4.6-2.1-4.6-4.7V52c0-2,1.6-3.6,3.6-3.6
		s3.5,1.7,3.5,4c3.4-3.5,7.6-4.4,10.8-4.4c8.9,0,15.5,7.5,15.5,16.8c0,9.2-6.3,17.1-15,17.1C602.6,81.8,598.6,81,596.1,79.1
		L596.1,79.1z"/>
</g>
</svg>
