<?xml version="1.0" encoding="utf-8"?>
<!-- Generator: Adobe Illustrator 25.3.1, SVG Export Plug-In . SVG Version: 6.00 Build 0)  -->
<svg version="1.1" id="Layer_1" xmlns="http://www.w3.org/2000/svg" xmlns:xlink="http://www.w3.org/1999/xlink" x="0px" y="0px"
	 viewBox="0 0 59.6 7.8" style="enable-background:new 0 0 59.6 7.8;" xml:space="preserve">
<style type="text/css">
	.st0{opacity:0.89;}
	.st1{fill:#333399;}
	.st2{fill:#FFFFFF;fill-opacity:0.2;}
</style>
<g class="st0">
	<path class="st1" d="M0,8V2.6h1l0.3,0.1c0.2,0,0.5-0.1,0.9-0.1c0.3,0,0.7,0,1.2,0h0.6c0.2,0,0.5,0,0.7,0.1C4.8,2.8,5,2.9,5.1,3
		C5.3,2.9,5.6,2.8,6,2.7c0.4-0.1,0.8-0.1,1.4-0.1H8c0.4,0,0.7,0.1,0.9,0.2S9.3,3,9.4,3.2c0.1,0.2,0.2,0.3,0.2,0.5c0,0.2,0,0.3,0,0.4
		V8H8.1V4.1c0-0.3-0.2-0.5-0.6-0.5H5.9c-0.1,0-0.2,0-0.3,0c0,0-0.1,0.1-0.1,0.2V8H4.1V4.1c0-0.3-0.2-0.5-0.6-0.5H1.8
		c-0.2,0-0.3,0-0.3,0c0,0-0.1,0.1-0.1,0.2V8H0z M12.4,8c-0.4,0-0.7-0.1-0.9-0.2c-0.2-0.1-0.4-0.2-0.5-0.4c-0.1-0.2-0.1-0.3-0.2-0.5
		c0-0.2,0-0.3,0-0.5V4.2c0-0.1,0-0.3,0-0.4c0-0.2,0.1-0.3,0.2-0.5c0.1-0.2,0.3-0.3,0.5-0.4c0.2-0.1,0.5-0.2,0.9-0.2H15
		c0.5,0,0.9,0.1,1.2,0.2c0.3,0.1,0.5,0.3,0.6,0.5c0.1,0.2,0.2,0.5,0.2,0.9v1.8H15c-0.7,0-1.3,0-1.8,0c-0.4,0-0.7-0.1-0.9-0.1v0.7
		c0,0.3,0.2,0.5,0.6,0.5h0.6c0.4,0,0.9,0,1.3,0c0.4,0,0.8,0,1.1,0c0.3,0,0.6,0,0.8-0.1l0.5,0.8c0,0.2-0.8,0.4-2.4,0.4H12.4z
		 M12.3,4.9h3.3V4.1c0-0.2,0-0.3-0.1-0.3c0-0.1-0.1-0.1-0.3-0.1c-0.2,0-0.5,0-0.9,0h-1.5c-0.4,0-0.6,0.2-0.6,0.5V4.9z M20.5,8
		c-0.6,0-1-0.1-1.2-0.4C19,7.4,18.9,7,18.9,6.5V3.7h-1v-1h0.5c0.2,0,0.3,0,0.3-0.1c0.1,0,0.1-0.1,0.2-0.3L19.1,1h1.2v1.6h2.5v1h-2.5
		v2.8c0,0.2,0,0.3,0.1,0.4C20.6,6.9,20.8,7,20.9,7h1.7l0.1,0.9c-0.2,0-0.4,0.1-0.8,0.1c-0.3,0-0.7,0-1.1,0H20.5z M25.4,8
		c-0.6,0-1-0.1-1.3-0.4c-0.3-0.3-0.4-0.7-0.4-1.2c0-0.5,0.1-0.9,0.4-1.2c0.3-0.3,0.7-0.4,1.3-0.4H26c0.6,0,1.1,0,1.6,0
		c0.5,0,0.9,0.1,1.2,0.1V4.1c0-0.1,0-0.1,0-0.2c0-0.1-0.1-0.1-0.1-0.2c-0.1,0-0.2-0.1-0.4-0.1h-0.6c-0.9,0-1.6,0-2.2,0
		c-0.6,0-1,0-1.2,0.1l-0.1-0.9c0-0.1,0.3-0.2,0.9-0.2c0.6,0,1.6,0,3,0h0.6c0.4,0,0.7,0.1,0.9,0.2S30,3,30.1,3.2
		c0.1,0.2,0.2,0.3,0.2,0.5c0,0.2,0,0.3,0,0.4V8h-1l-0.5-0.2c-0.3,0.1-0.7,0.1-1.2,0.2C27.1,8,26.6,8,26,8H25.4z M25.7,7h2.7
		c0.2,0,0.3,0,0.3,0c0,0,0-0.1,0-0.3V5.7h-3.1c-0.2,0-0.4,0.1-0.5,0.2c-0.1,0.1-0.1,0.3-0.1,0.5s0,0.4,0.1,0.5
		C25.3,6.9,25.5,7,25.7,7z M34,8c-0.6,0-1-0.1-1.3-0.2C32.3,7.6,32.1,7.4,32,7c-0.1-0.3-0.2-0.7-0.2-1.2V3.2c0-0.8,0.2-1.3,0.5-1.7
		c0.3-0.4,0.9-0.6,1.7-0.6h3.6c0.6,0,1,0,1.3,0.1c0.3,0.1,0.4,0.1,0.4,0.2l-0.2,1c-0.1,0-0.5,0-1.2-0.1c-0.7,0-1.6,0-2.9,0h-0.6
		c-0.6,0-1,0.3-1,0.9V6c0,0.3,0.1,0.5,0.2,0.6c0.1,0.1,0.4,0.2,0.8,0.2h0.5c1.3,0,2.4,0,3.1,0c0.7,0,1.2-0.1,1.4-0.1l0.5,0.8
		c0,0-0.1,0.1-0.2,0.2c-0.1,0.1-0.4,0.2-0.7,0.2C38.5,8,38,8,37.3,8H34z M41.1,8V1.9l-0.1-1h1.8l2.7,4.8l2.8-4.8h1.6V8h-1.6V3.5
		h-0.1l-0.5,1l-1.5,2.7h-1.5l-1.5-2.7l-0.5-1h-0.1V8H41.1z M53.9,8c-0.6,0-1-0.1-1.3-0.2C52.3,7.6,52,7.4,51.9,7
		c-0.1-0.3-0.2-0.7-0.2-1.2V3.1c0-0.5,0.1-0.9,0.2-1.2c0.1-0.3,0.4-0.6,0.7-0.7c0.3-0.2,0.8-0.3,1.3-0.3h3.5c0.6,0,1,0.1,1.3,0.3
		c0.3,0.2,0.5,0.4,0.7,0.7c0.1,0.3,0.2,0.7,0.2,1.2v2.8c0,0.7-0.2,1.2-0.5,1.6C58.8,7.8,58.2,8,57.4,8H53.9z M54.2,6.8h2.8
		c0.3,0,0.5-0.1,0.7-0.2C57.9,6.5,58,6.3,58,6V2.9c0-0.2-0.1-0.4-0.3-0.6c-0.2-0.2-0.4-0.3-0.7-0.3h-2.8c-0.3,0-0.5,0.1-0.7,0.2
		c-0.2,0.2-0.3,0.4-0.3,0.6V6c0,0.3,0.1,0.5,0.3,0.6C53.7,6.8,54,6.8,54.2,6.8z"/>
	<path class="st2" d="M0,8V2.6h1l0.3,0.1c0.2,0,0.5-0.1,0.9-0.1c0.3,0,0.7,0,1.2,0h0.6c0.2,0,0.5,0,0.7,0.1C4.8,2.8,5,2.9,5.1,3
		C5.3,2.9,5.6,2.8,6,2.7c0.4-0.1,0.8-0.1,1.4-0.1H8c0.4,0,0.7,0.1,0.9,0.2S9.3,3,9.4,3.2c0.1,0.2,0.2,0.3,0.2,0.5c0,0.2,0,0.3,0,0.4
		V8H8.1V4.1c0-0.3-0.2-0.5-0.6-0.5H5.9c-0.1,0-0.2,0-0.3,0c0,0-0.1,0.1-0.1,0.2V8H4.1V4.1c0-0.3-0.2-0.5-0.6-0.5H1.8
		c-0.2,0-0.3,0-0.3,0c0,0-0.1,0.1-0.1,0.2V8H0z M12.4,8c-0.4,0-0.7-0.1-0.9-0.2c-0.2-0.1-0.4-0.2-0.5-0.4c-0.1-0.2-0.1-0.3-0.2-0.5
		c0-0.2,0-0.3,0-0.5V4.2c0-0.1,0-0.3,0-0.4c0-0.2,0.1-0.3,0.2-0.5c0.1-0.2,0.3-0.3,0.5-0.4c0.2-0.1,0.5-0.2,0.9-0.2H15
		c0.5,0,0.9,0.1,1.2,0.2c0.3,0.1,0.5,0.3,0.6,0.5c0.1,0.2,0.2,0.5,0.2,0.9v1.8H15c-0.7,0-1.3,0-1.8,0c-0.4,0-0.7-0.1-0.9-0.1v0.7
		c0,0.3,0.2,0.5,0.6,0.5h0.6c0.4,0,0.9,0,1.3,0c0.4,0,0.8,0,1.1,0c0.3,0,0.6,0,0.8-0.1l0.5,0.8c0,0.2-0.8,0.4-2.4,0.4H12.4z
		 M12.3,4.9h3.3V4.1c0-0.2,0-0.3-0.1-0.3c0-0.1-0.1-0.1-0.3-0.1c-0.2,0-0.5,0-0.9,0h-1.5c-0.4,0-0.6,0.2-0.6,0.5V4.9z M20.5,8
		c-0.6,0-1-0.1-1.2-0.4C19,7.4,18.9,7,18.9,6.5V3.7h-1v-1h0.5c0.2,0,0.3,0,0.3-0.1c0.1,0,0.1-0.1,0.2-0.3L19.1,1h1.2v1.6h2.5v1h-2.5
		v2.8c0,0.2,0,0.3,0.1,0.4C20.6,6.9,20.8,7,20.9,7h1.7l0.1,0.9c-0.2,0-0.4,0.1-0.8,0.1c-0.3,0-0.7,0-1.1,0H20.5z M25.4,8
		c-0.6,0-1-0.1-1.3-0.4c-0.3-0.3-0.4-0.7-0.4-1.2c0-0.5,0.1-0.9,0.4-1.2c0.3-0.3,0.7-0.4,1.3-0.4H26c0.6,0,1.1,0,1.6,0
		c0.5,0,0.9,0.1,1.2,0.1V4.1c0-0.1,0-0.1,0-0.2c0-0.1-0.1-0.1-0.1-0.2c-0.1,0-0.2-0.1-0.4-0.1h-0.6c-0.9,0-1.6,0-2.2,0
		c-0.6,0-1,0-1.2,0.1l-0.1-0.9c0-0.1,0.3-0.2,0.9-0.2c0.6,0,1.6,0,3,0h0.6c0.4,0,0.7,0.1,0.9,0.2S30,3,30.1,3.2
		c0.1,0.2,0.2,0.3,0.2,0.5c0,0.2,0,0.3,0,0.4V8h-1l-0.5-0.2c-0.3,0.1-0.7,0.1-1.2,0.2C27.1,8,26.6,8,26,8H25.4z M25.7,7h2.7
		c0.2,0,0.3,0,0.3,0c0,0,0-0.1,0-0.3V5.7h-3.1c-0.2,0-0.4,0.1-0.5,0.2c-0.1,0.1-0.1,0.3-0.1,0.5s0,0.4,0.1,0.5
		C25.3,6.9,25.5,7,25.7,7z M34,8c-0.6,0-1-0.1-1.3-0.2C32.3,7.6,32.1,7.4,32,7c-0.1-0.3-0.2-0.7-0.2-1.2V3.2c0-0.8,0.2-1.3,0.5-1.7
		c0.3-0.4,0.9-0.6,1.7-0.6h3.6c0.6,0,1,0,1.3,0.1c0.3,0.1,0.4,0.1,0.4,0.2l-0.2,1c-0.1,0-0.5,0-1.2-0.1c-0.7,0-1.6,0-2.9,0h-0.6
		c-0.6,0-1,0.3-1,0.9V6c0,0.3,0.1,0.5,0.2,0.6c0.1,0.1,0.4,0.2,0.8,0.2h0.5c1.3,0,2.4,0,3.1,0c0.7,0,1.2-0.1,1.4-0.1l0.5,0.8
		c0,0-0.1,0.1-0.2,0.2c-0.1,0.1-0.4,0.2-0.7,0.2C38.5,8,38,8,37.3,8H34z M41.1,8V1.9l-0.1-1h1.8l2.7,4.8l2.8-4.8h1.6V8h-1.6V3.5
		h-0.1l-0.5,1l-1.5,2.7h-1.5l-1.5-2.7l-0.5-1h-0.1V8H41.1z M53.9,8c-0.6,0-1-0.1-1.3-0.2C52.3,7.6,52,7.4,51.9,7
		c-0.1-0.3-0.2-0.7-0.2-1.2V3.1c0-0.5,0.1-0.9,0.2-1.2c0.1-0.3,0.4-0.6,0.7-0.7c0.3-0.2,0.8-0.3,1.3-0.3h3.5c0.6,0,1,0.1,1.3,0.3
		c0.3,0.2,0.5,0.4,0.7,0.7c0.1,0.3,0.2,0.7,0.2,1.2v2.8c0,0.7-0.2,1.2-0.5,1.6C58.8,7.8,58.2,8,57.4,8H53.9z M54.2,6.8h2.8
		c0.3,0,0.5-0.1,0.7-0.2C57.9,6.5,58,6.3,58,6V2.9c0-0.2-0.1-0.4-0.3-0.6c-0.2-0.2-0.4-0.3-0.7-0.3h-2.8c-0.3,0-0.5,0.1-0.7,0.2
		c-0.2,0.2-0.3,0.4-0.3,0.6V6c0,0.3,0.1,0.5,0.3,0.6C53.7,6.8,54,6.8,54.2,6.8z"/>
</g>
</svg>
