<?xml version="1.0" encoding="utf-8"?>
<!-- Generator: Adobe Illustrator 25.3.1, SVG Export Plug-In . SVG Version: 6.00 Build 0)  -->
<svg version="1.1" xmlns="http://www.w3.org/2000/svg" xmlns:xlink="http://www.w3.org/1999/xlink" x="0px" y="0px"
	 viewBox="0 0 860.2 762.5" style="enable-background:new 0 0 860.2 762.5;" xml:space="preserve">
<style type="text/css">
	.st0{fill:url(#SVGID_1_);}
	.st1{fill:url(#SVGID_2_);}
	.st2{fill:url(#SVGID_3_);}
	.st3{fill:url(#SVGID_4_);}
	.st4{fill:url(#SVGID_5_);}
	.st5{fill:url(#SVGID_6_);}
	.st6{fill:url(#SVGID_7_);}
</style>
<g id="Layer_1">
	<g>
		
			<linearGradient id="SVGID_1_" gradientUnits="userSpaceOnUse" x1="357.8355" y1="732.6409" x2="739.0914" y2="181.938" gradientTransform="matrix(1 0 0 -1 0 750.934)">
			<stop  offset="5.166997e-04" style="stop-color:#00FFFF"/>
			<stop  offset="1" style="stop-color:#FF00FF"/>
		</linearGradient>
		<path class="st0" d="M348.5,50.3c6.2,4,14,5.7,21.2,3.9c8.2-2,15.2-8.1,19-15.5c3.6-6.7,3.3-14.9,0.7-21.9
			C383.7,2,364-4.1,350.4,3.5c-8.6,4.6-14.2,14.4-13.6,24.2C336.4,36.6,341.5,44.9,348.5,50.3z"/>
		
			<linearGradient id="SVGID_2_" gradientUnits="userSpaceOnUse" x1="445.0475" y1="793.0184" x2="826.3033" y2="242.3155" gradientTransform="matrix(1 0 0 -1 0 750.934)">
			<stop  offset="5.166997e-04" style="stop-color:#00FFFF"/>
			<stop  offset="1" style="stop-color:#FF00FF"/>
		</linearGradient>
		<path class="st1" d="M483.6,59c5.7,9.3,11.2,18.6,16,28.3c2.7,5,5.4,10.1,8.9,14.7c4.5,5.8,9.9,11.6,17.2,13.5
			c15.3,3.7,32.2-8.2,33.9-23.8c0.8-6.2-1.8-12.1-4.7-17.4c-2.7-5.5-5.7-10.8-8.6-16.1c-3.6-6.3-7.1-12.7-10.9-18.9l-0.3,0.5l0-0.9
			c-5.1-9-10.8-17.6-16-26.4c-3.2-4.8-7.8-8.9-13.4-10.6c-6.7-2.4-14.2-1.3-20.6,1.6c-5.7,3-10.9,7.6-13.2,13.8
			c-2,3.8-1.7,8.4-1.6,12.5C471.3,40.6,477.8,50,483.6,59z"/>
		
			<linearGradient id="SVGID_3_" gradientUnits="userSpaceOnUse" x1="347.4887" y1="725.4776" x2="728.7445" y2="174.7748" gradientTransform="matrix(1 0 0 -1 0 750.934)">
			<stop  offset="5.166997e-04" style="stop-color:#00FFFF"/>
			<stop  offset="1" style="stop-color:#FF00FF"/>
		</linearGradient>
		<path class="st2" d="M392.2,126.1c1.8,6,4.5,11.8,7.7,17.3c5.6,9.3,11.3,18.6,16.6,28c5.3,9.2,10.4,18.6,15.5,27.9
			c2.2,4,4.1,8,6.6,11.9c3.5,5.7,6.7,11.9,11.3,16.6c1.6,2.9,4.3,5.1,6.8,7.4c5,2.7,11,4.3,16.6,3.1c8-0.8,15.5-5.5,20.1-12.1
			c4.2-6.2,5-14.2,3.2-21.4c-2.2-8.6-7.2-16-11.6-23.6c-2.9-5-5.9-9.9-8.6-14.9c-3.8-6.5-7.3-13.1-11-19.6
			c-4.2-7.4-8.4-14.9-12.6-22.3c-4.5-7.7-9.1-15.3-13.9-22.9c-6-8.6-17.7-11-27.5-8.9l-0.1,0.2c-10.6,2.5-19.9,11.7-20.6,22.9
			C390.9,119.3,391.3,122.7,392.2,126.1z"/>
		
			<linearGradient id="SVGID_4_" gradientUnits="userSpaceOnUse" x1="239.122" y1="650.4545" x2="620.3779" y2="99.7517" gradientTransform="matrix(1 0 0 -1 0 750.934)">
			<stop  offset="5.166997e-04" style="stop-color:#00FFFF"/>
			<stop  offset="1" style="stop-color:#FF00FF"/>
		</linearGradient>
		<path class="st3" d="M860.2,370.1l-0.3,0.2c-0.5-3.1-2-5.8-3.5-8.5c-9.7-16.6-19.2-33.3-28.9-49.9c-3.2-5.9-6.8-11.6-10-17.5
			c-6-10.3-11.9-20.5-17.8-30.8c-3.9-6.8-7.9-13.5-11.8-20.4c-4.3-7.4-8.6-14.7-12.7-22.1c-4.3-7.3-8.5-14.5-12.7-21.9
			c-3.9-6.8-7.9-13.5-11.7-20.3c-6-10.2-11.8-20.4-17.7-30.6c-5.6-9.8-11.2-19.6-17-29.3l0.1-0.1c-3.8-6.5-7.6-13.1-11.4-19.6
			c-5.5-9.6-11.1-19.2-16.6-28.9c-2.7-4.5-5.3-9.1-7.9-13.7c-5.9-10.1-11.7-20.2-17.5-30.4c-4.1-7-8.1-14.4-14.3-19.9
			c-10.3-10.1-28.7-7.9-37.3,3.4c-4.7,6.5-7.6,14.7-6.2,22.7c1.1,7.2,5.8,13,9.2,19.2c6.8,11.9,13.8,23.7,20.6,35.6
			c5.2,8.8,10.2,17.7,15.4,26.5c5.9,10.4,11.9,20.8,18,31.1c3.6,6.4,7.2,12.6,10.9,18.9c4.1,7,8.1,14.1,12.2,21.1
			c5.2,9,10.3,18,15.6,27c4.3,7.5,8.7,15,13,22.6c2.8,4.9,5.7,9.6,8.3,14.5c4.1,6.8,8,13.8,12,20.7c0.6,0.7,0.9,2.4,2,2.4l-0.5,0.2
			c4.8,8.2,9.4,16.5,14.3,24.6c5.2,9.4,10.8,18.6,16.1,27.9c4.8,8.1,9.4,16.3,14.2,24.3c3,5.3,6.3,10.5,8.4,16.3
			c2.6,6.8,2.8,14.3,1,21.4l-0.3-0.2c-1.6,4.8-4.5,9.2-7.8,13c-11.2,11.5-32,12-43.3,0.4c-3.4-3.7-5.4-8.3-8-12.5
			c-6.7-11.2-13-22.7-19.8-33.8l0.1-0.1c-3.3-5.8-6.8-11.5-10-17.4c-6-10.3-11.9-20.7-17.8-31.1c-3.8-6.5-7.5-13.2-11.3-19.7
			c-4.3-7.9-9.2-15.6-13.3-23.6c-0.1,0.2-0.4,0.6-0.5,0.8c0-1.5-0.6-2.8-1.4-4c-2.3-3.6-4.3-7.5-6.5-11.2
			c-5.6-9.6-10.9-19.3-16.7-28.8c-2.6-5.1-5.8-10-8.6-15.1c-3.6-6.3-7.5-12.6-11-18.9c-3.8-6-6.9-12.3-10.9-18.1
			c-7.5-9.1-21.1-11.1-31.6-6.4c-8.7,3.5-14.7,12.2-15.6,21.4c-1,8.7,3.3,16.7,7.2,24.2c3.6,6.7,7.7,13.1,11.5,19.7
			c3.3,5.8,6.6,11.6,9.9,17.4c2.9,5.2,6,10.4,8.9,15.6c4.4,7.3,8.5,14.8,12.8,22.2c2.8,4.8,5.5,9.8,8.4,14.5
			c5.1,9.1,10.4,18.2,15.5,27.3l0-0.1c3,5.3,5.9,10.7,9.1,15.9c5.5,9.8,11.2,19.6,16.8,29.4c3.8,6.6,7.5,13.2,11.3,19.8
			c9.8,17,19.4,34.1,29.3,51l-0.1,0.1c3.9,6.4,7.4,13,11.2,19.4c4.1,7.7,9.1,14.8,12.7,22.8c3.3,7.2,3.3,15.4,1.7,23l-0.3,0
			c-1.8,7-7.4,12.3-13.3,16.1c-2.4,1.2-4.9,2.2-7.5,3.1c-7.5,2-15.5,0.6-22.3-3.1c-7.2-4.5-11.5-12-15.4-19.3
			c-3.8-6.6-7.8-13.1-11.5-19.8c-10.6-17.6-20.4-35.6-31-53.2l-0.7,0l0.3-0.6c-3.4-6.8-7.6-13.3-11.3-20.1
			c-3.3-5.7-6.6-11.5-9.9-17.2c-5.2-9.2-10.6-18.3-15.8-27.5c-3.5-5.7-6.5-11.6-10.1-17.2l0.1-0.1c-4-6.8-7.8-13.5-11.8-20.3
			c-5-8.9-10.3-17.6-15.4-26.4c-3.7-6.8-7.8-14.1-15.4-17.1l0.2-0.2c-5.5-2.1-11.5-3.7-17.4-2.3c-10.6,1.9-19.5,10.7-21.5,21.2
			c-1.7,6.1,0,12.5,2.5,18c3.7,7.6,8.3,14.6,12.4,22l0.1-0.1c4.3,7.9,8.8,15.6,13.3,23.4c3.5,6.2,7.1,12.4,10.7,18.6
			c2.8,4.7,5.4,9.6,8.3,14.3c5.2,9.2,10.6,18.4,15.8,27.6c3.4,5.7,6.6,11.5,9.9,17.2c3.7,6.3,7.2,12.7,11,19
			c8.5,14.8,16.9,29.5,25.5,44.2c3.6,6.5,7.4,12.9,11.1,19.4c8.8,15.1,17.2,30.5,26.4,45.5l0.6,0l-0.2,0.7
			c5,10.6,12.8,19.9,16.5,31.1c2.3,9.4,0.3,19.8-5.6,27.5c-5.5,6.9-13.5,11.9-22.3,12.7c-1.1,0-2.2,0-3.2,0
			c-2.9-0.3-5.7-1.6-8.6-1.4l0.8-0.4c-8.3-2.6-14.5-9.4-18.8-16.7c-5.1-9.7-10.8-19-16.2-28.5c-5.3-9-10.4-18.1-15.7-27.1l0.1-0.1
			c-5-8.5-9.9-17-14.8-25.6c-5.8-10-11.7-20.1-17.4-30.1c-4-6.9-8-13.8-12-20.7c-3.6-6.2-7.2-12.5-10.8-18.7
			c-4.2-7.5-8.6-14.9-12.9-22.3c-3-5.6-6.4-11-9.5-16.5c-3.1-5.2-6.1-10.6-9.2-15.8c-3.9-6.9-7.9-13.7-11.9-20.6
			c-2.2-4.1-4.7-8.1-7-12.1c-2.1-4-4.5-7.8-6.7-11.6l0.1-0.1c-2.5-4.2-5-8.4-7.4-12.7c-2.2-3.9-4.5-7.7-6.7-11.6
			c-3.2-4.8-5.3-10.3-9-14.8c-2.7-6.5-7-12.5-10.4-18.8l-0.1,0.5c-1.2-3.5-3.6-6.6-5.3-9.9c-2.4-4-4.6-8-7-12
			c-6.6-11.3-13-22.8-19.7-34.1c-10.9-18.8-21.6-37.7-32.7-56.4c-2-3.7-4.2-7.4-6.3-11c-1.3-2.4-2.6-4.7-4-7
			c-4-6.8-7.9-13.6-11.8-20.4c-4.4-7.4-8.6-14.9-12.9-22.2c-4.3-7.4-8.6-14.9-12.9-22.4c-5-8.5-9.9-17.2-14.9-25.7
			c-4.5-8-9.2-15.8-13.6-23.7c-8-13.5-15.5-27.4-23.8-40.7l-0.6,0.1l0.2-0.8c-4-7-7.6-14.6-12.8-21C239-1,223.6-2.2,213,5.1
			c-6.7,5-10.2,12.7-14.2,19.8c-4.7,8.2-9.6,16.4-14.2,24.6c-11.5,19.5-22.7,39.1-34,58.6l-0.1,0c-17.4,30.4-35,60.7-52.5,91.1
			c-9.4,16-18.6,32.1-27.8,48.1c-7.3,12.9-15.2,25.5-22,38.6l0.4,0.4l-0.8,0.2c-2.2,2.7-3.6,5.9-5.4,8.9
			c-6.1,10.5-12.2,20.9-18.2,31.4c-4.6,7.7-9.1,15.4-13.5,23.2c-6.4,10.4-13.4,22.5-9.7,35.1l0.2,0c4,8.3,9.1,16.1,13.5,24.2
			c3.3,5.8,6.6,11.5,9.9,17.3l0.2,0c5.5,10.2,11.6,20.2,17.3,30.4h0.2c3.9,7.4,8.1,14.7,12.5,21.9l0.7,0.2l-0.2,0.5
			c7,13.2,14.9,26,22.2,39c17.2,29.8,34.4,59.8,51.7,89.5c8.5,15,17.2,29.8,25.8,44.7c5.4,9.4,10.8,18.8,16.3,28.2
			c3.5,6.2,7.2,12.4,10.7,18.6c2.2,3.7,4.3,7.4,6.4,11.2c3.5,5.8,6.8,11.7,10.2,17.5c3.1,5.5,6.4,10.9,10.4,15.7
			c3,3.1,6.3,6.3,10.6,7.4c2.5,1,5.1,1.5,7.7,1.6c12.1,0.4,24.7-7.2,28-19.2l0.4-0.1c0.2-1.5,0.3-3,0.5-4.5l0.5-0.2
			c0-3.5-0.7-7-1.1-10.4l-0.3,0.2c-0.7-3.5-2-6.8-3.6-9.9c-2.6-4.3-4.9-8.7-7.5-13c-1.7-2.9-3.4-5.9-5.1-8.8
			c-2.6-4.5-5.2-9-7.8-13.5l-0.1,0.1c-4.4-8.3-9.3-16.2-13.9-24.3c-6.5-11-12.6-22.2-19.3-33l0.2-0.3
			c-21.8-37.1-43.1-74.5-64.7-111.8c-6-10.4-12-20.7-18-31.2c-4-6.9-8-13.8-12-20.8c-5.5-9.2-10.5-18.7-16.2-27.8h-0.6l0.2-0.7
			c-3-6.1-6.7-11.9-10.1-17.8c-4-7.7-9.5-14.8-12.1-23.2c-1.3-6.3-0.5-12.9,1.9-18.9c3.7-8.7,10.9-16.2,20-19c4-1.4,8.3-0.9,12.4-1
			c9.3,0.6,16.7,7.2,21.7,14.6c4.3,6.6,8,13.5,11.9,20.4c4.6,7.8,9,15.8,13.6,23.6l-0.1,0c6.2,10.7,12.3,21.5,18.5,32.3
			c5.2,9.2,10.6,18.3,15.7,27.6l0.1-0.1c3.6,6.6,7.4,13,11.1,19.6l0.1-0.1c17.5,31.2,35.5,62.2,53.1,93.4
			c3.1,5.7,6.8,11.3,12.1,15.2c4.5,3.2,10,5.1,15.6,4.8c15,0.2,28-13.9,27.4-28.7c0.1-7.2-4.3-13.3-7.7-19.3
			c-17.5-31.1-35.1-62-52.8-92.9c-4.1-7.1-8.1-14.2-12.2-21.2c-5-8.6-10-17.3-14.9-26l-0.1,0c-6.3-11-12.3-22.1-19-32.8l-0.7,0
			l0.3-0.6c-4.3-8.5-9.5-16.7-14.1-25.1l0-0.1c-3.7-6.1-7.1-12.3-10.7-18.5c-3.4-6-6.8-11.9-10.2-17.9c-6.3-11-12.5-22.1-18.9-33.1
			c-4.7-7.5-8.6-16.1-7-25.1l0.4-0.1c0.9-8.2,6-15.7,12.8-20.2c7.6-4.8,17.4-6.1,25.9-3.2l0.3-0.2c5.1,2.3,10,5.4,13.3,10
			c5.7,8,10,16.9,15.2,25.2l-0.1,0.2c4.4,7.3,8.6,14.7,12.9,22.2c3.2,5.2,6,10.6,9.2,15.8c3.6,6.4,7.3,12.7,10.9,19.1
			c4.9,8.6,9.9,17.2,14.8,25.8c3.6,6.2,7.1,12.6,10.8,18.8c7.4,13,14.9,25.9,22.3,38.9c11.1,19,22.1,38.1,33.3,57
			c2,3.2,4.8,5.6,7.8,7.8c6.8,4,15.2,5.2,22.8,2.9c1.2-0.5,2.5-1,3.7-1.5c8.9-4.3,15.5-13.6,15.4-23.7c0.3-9.3-4.6-17.6-9.3-25.2
			c-13.9-24.4-28-48.7-42-73l-0.2,0.3c-0.3-1.5-1.3-2.7-2-4.1c-5.7-9.7-11.1-19.5-16.9-29.1c-2.4-4.6-5.2-9-7.7-13.5
			c-4.5-7.8-9-15.5-13.3-23.2c-3.4-5.7-6.6-11.6-10.1-17.4c-3.1-5.7-6.5-11.2-9.6-16.9c-3.8-6.5-7.6-13.1-11.3-19.6
			c-7-12-13.9-24.1-20.8-36.2c-5.8-10-11.5-20.2-17.5-30.2c-2.3-3.6-3.8-7.6-4.8-11.8c-0.3-3.7-0.3-7.5,0.6-11.1
			c1.8-8.4,7-15.9,14.1-20.7c6-3.9,13.4-5,20.5-4.4c3.3,0.9,6.8,1.6,9.7,3.5c6.1,3.4,10.5,9.1,13.8,15.1
			c5.5,9.8,11.1,19.5,16.8,29.2c4,7,8.1,14,12.1,21c4.9,8.5,9.8,16.9,14.6,25.4c5,8.5,9.9,17.2,14.9,25.7
			c4.1,7.2,8.1,14.5,12.5,21.5l0.6,0l-0.2,0.7c2.5,5,5.7,9.8,8.4,14.8c8,13.7,15.9,27.5,23.8,41.2c7.9,13.5,15.5,27.2,23.6,40.6
			l-0.1,0.3c5,8.3,9.8,16.8,14.7,25.2c1.6,2.9,3.4,5.8,5,8.7c1.3,2.5,2.7,4.8,4.2,7.2c2.4,4.5,5,8.8,7.6,13.2
			c1.7,3.2,3.6,6.3,5.4,9.5c1.6,2.9,3.2,5.8,4.9,8.6c1.6,2.7,3,5.4,4.7,8l0,0.1c1.7,3,3.5,6,5.2,9c1.4,2.4,2.8,4.8,4.2,7.1
			c3.5,6.3,7.2,12.5,10.8,18.8c2.4,4,4.6,8.2,7.1,12.2c2.9,5.3,6.1,10.4,9,15.7c3.8,6.3,7.3,12.8,11.1,19c2.6,4.8,5.5,9.4,8.1,14.2
			c3.6,6.2,7.3,12.4,10.7,18.7l0.2-0.1c3.8,7.2,8.1,14.1,12.1,21.2c5.4,9.5,10.9,18.9,16.4,28.4c4.2,7.2,8.3,14.5,12.6,21.6l0.7,0.1
			l-0.3,0.6c9.5,17.1,19.6,33.9,29.3,50.9l0.1,0c9.2,16.2,18.7,32.2,27.9,48.3l0.2-0.1c2.5,5,5.6,9.6,8.3,14.5
			c3.1,4.8,5.2,10.5,9.8,14.2c11.9,10.5,33.2,7.9,41-6.3c14.3-24.7,28.6-49.3,42.8-74c11.6-20.1,23.3-40.1,34.7-60.3l0.2,0.1
			c15.2-26.9,30.9-53.6,46.2-80.5c7.2-12.2,14.2-24.6,21.3-36.9c9.1-15.7,18.2-31.5,27.2-47.2c1-1.8,2.5-3.6,2.6-5.8
			c0.1,0.2,0.3,0.7,0.4,0.9c6.8-12.5,14.2-24.6,21.1-36.9c2.9-5.2,6.5-10.1,8.1-15.9C861,379.3,860.5,374.6,860.2,370.1z"/>
		
			<linearGradient id="SVGID_5_" gradientUnits="userSpaceOnUse" x1="131.247" y1="575.7718" x2="512.5028" y2="25.069" gradientTransform="matrix(1 0 0 -1 0 750.934)">
			<stop  offset="5.166997e-04" style="stop-color:#00FFFF"/>
			<stop  offset="1" style="stop-color:#FF00FF"/>
		</linearGradient>
		<path class="st4" d="M465.3,617.3c-6.6-11.7-12.8-23.5-19.4-35.2c-4-7.2-8.1-14.3-12.2-21.5c-4.2-7.1-8.3-14.3-12.8-21.2l0.1-0.3
			c-2.6-3.7-4.8-7.7-7.4-11.5l0-0.1c-2-3.1-3.8-6.2-6.7-8.6l0.1-0.1c-2.2-1.3-4.3-3-6.8-3.5l-0.5,0.4l-0.2-0.8
			c-1.8-0.9-4-0.9-5.9-1.4c-2.2,0-4.4,0.1-6.6,0.2l0,0.2c-3.5,0.7-6.8,2-10,3.5l0,0.1c-7.7,4.2-13.2,12.2-14.1,20.9
			c-0.6,6.1,2.3,11.8,4.9,17.1c1.7,4.8,4.5,9.5,6.9,14l-0.1,0.2c1.4,2.5,2.8,5,4.3,7.4l-0.1,0.3c0.8,1.2,1.5,2.5,2.3,3.7
			c1.6,2.6,3.1,5.3,4.6,7.9l0.3-0.8l-0.3,1.1c1.9,2.6,3.5,5.5,5.2,8.3c1.5,2.6,3,5.2,4.6,7.8c3,5.5,6.2,10.8,9,16.4
			c3.4,5.4,6,11.3,9.3,16.8c3.8,6.7,8.2,13.5,14.5,18c4.7,3.7,10.9,5.1,16.8,4.6c12.3-1.6,23.4-11.5,25.4-23.9
			C472.3,630.2,468.5,623.5,465.3,617.3z"/>
		
			<linearGradient id="SVGID_6_" gradientUnits="userSpaceOnUse" x1="33.4538" y1="508.0689" x2="414.7097" y2="-42.634" gradientTransform="matrix(1 0 0 -1 0 750.934)">
			<stop  offset="5.166997e-04" style="stop-color:#00FFFF"/>
			<stop  offset="1" style="stop-color:#FF00FF"/>
		</linearGradient>
		<path class="st5" d="M386.2,708.6c-2.4-4.6-5.2-9-7.5-13.6c-0.7-1.3-1.5-2.7-2.2-3.9c-2-3.5-3.9-6.9-5.9-10.4
			c-2.7-4.6-5.3-9.3-8.1-13.8c-2.7-4.7-5.6-9.3-8.5-13.8l0.1-0.1c-2.7-4.2-5.2-8.7-9.3-11.6c-1.5-0.9-3-1.7-4.5-2.6
			c-4-1.8-8.4-2.4-12.8-2.5l0,0.4c-16.9-0.5-29.9,17.9-25.5,33.9l0.6-0.6c0.2,4,2.5,7.5,4,11.2c1.9,3.4,3.8,6.9,5.9,10.2l-0.3,0.3
			c0.3,0.3,0.9,0.8,1.2,1c1.7,3,3.6,5.9,5.3,8.9l0.1,0c2.5,3.9,4.6,8,6.9,12c3.7,6.4,6.7,13.3,10.7,19.6
			c5.8,9.9,15.3,19.2,27.3,19.9c2.7-0.4,6.3,0,8.3-2.2l0.2,0.9c4-1.9,7.9-4.1,11-7.2c3.8-3.8,6.8-8.6,8.1-13.8
			C393.5,722.9,390.1,715.1,386.2,708.6L386.2,708.6z"/>
		
			<linearGradient id="SVGID_7_" gradientUnits="userSpaceOnUse" x1="121.2398" y1="568.8438" x2="502.4955" y2="18.1409" gradientTransform="matrix(1 0 0 -1 0 750.934)">
			<stop  offset="5.166997e-04" style="stop-color:#00FFFF"/>
			<stop  offset="1" style="stop-color:#FF00FF"/>
		</linearGradient>
		<path class="st6" d="M489,698.4c-9.1,3-16.8,10.7-18.8,20.2c-2.7,10.8,1.9,23,11,29.4c6.7,4.8,15.6,6.5,23.5,3.9
			c12.8-4,22.9-17.7,19.8-31.3C522.5,704.5,504.1,693.7,489,698.4z"/>
	</g>
</g>
<g id="Layer_2">
</g>
</svg>
