<svg id="visual" viewBox="0 0 900 600" width="900" height="600" xmlns="http://www.w3.org/2000/svg" xmlns:xlink="http://www.w3.org/1999/xlink" version="1.1"><rect x="0" y="0" width="900" height="600" fill="#001220"></rect><path d="M0 114L21.5 121C43 128 86 142 128.8 149.7C171.7 157.3 214.3 158.7 257.2 152.7C300 146.7 343 133.3 385.8 126.7C428.7 120 471.3 120 514.2 127.3C557 134.7 600 149.3 642.8 161C685.7 172.7 728.3 181.3 771.2 178.3C814 175.3 857 160.7 878.5 153.3L900 146L900 0L878.5 0C857 0 814 0 771.2 0C728.3 0 685.7 0 642.8 0C600 0 557 0 514.2 0C471.3 0 428.7 0 385.8 0C343 0 300 0 257.2 0C214.3 0 171.7 0 128.8 0C86 0 43 0 21.5 0L0 0Z" fill="#7e0c60"></path><path d="M0 149L21.5 142.7C43 136.3 86 123.7 128.8 118.7C171.7 113.7 214.3 116.3 257.2 119.7C300 123 343 127 385.8 129.8C428.7 132.7 471.3 134.3 514.2 127.5C557 120.7 600 105.3 642.8 109.5C685.7 113.7 728.3 137.3 771.2 148.2C814 159 857 157 878.5 156L900 155L900 0L878.5 0C857 0 814 0 771.2 0C728.3 0 685.7 0 642.8 0C600 0 557 0 514.2 0C471.3 0 428.7 0 385.8 0C343 0 300 0 257.2 0C214.3 0 171.7 0 128.8 0C86 0 43 0 21.5 0L0 0Z" fill="#8e2884"></path><path d="M0 109L21.5 101.7C43 94.3 86 79.7 128.8 79.5C171.7 79.3 214.3 93.7 257.2 100.7C300 107.7 343 107.3 385.8 108.8C428.7 110.3 471.3 113.7 514.2 109.7C557 105.7 600 94.3 642.8 95.2C685.7 96 728.3 109 771.2 111C814 113 857 104 878.5 99.5L900 95L900 0L878.5 0C857 0 814 0 771.2 0C728.3 0 685.7 0 642.8 0C600 0 557 0 514.2 0C471.3 0 428.7 0 385.8 0C343 0 300 0 257.2 0C214.3 0 171.7 0 128.8 0C86 0 43 0 21.5 0L0 0Z" fill="#9941ab"></path><path d="M0 61L21.5 60.2C43 59.3 86 57.7 128.8 62.7C171.7 67.7 214.3 79.3 257.2 83.8C300 88.3 343 85.7 385.8 79.2C428.7 72.7 471.3 62.3 514.2 62.2C557 62 600 72 642.8 72.2C685.7 72.3 728.3 62.7 771.2 61C814 59.3 857 65.7 878.5 68.8L900 72L900 0L878.5 0C857 0 814 0 771.2 0C728.3 0 685.7 0 642.8 0C600 0 557 0 514.2 0C471.3 0 428.7 0 385.8 0C343 0 300 0 257.2 0C214.3 0 171.7 0 128.8 0C86 0 43 0 21.5 0L0 0Z" fill="#9c5bd4"></path><path d="M0 43L21.5 40.5C43 38 86 33 128.8 32.7C171.7 32.3 214.3 36.7 257.2 39C300 41.3 343 41.7 385.8 39.7C428.7 37.7 471.3 33.3 514.2 31.2C557 29 600 29 642.8 33.3C685.7 37.7 728.3 46.3 771.2 50.3C814 54.3 857 53.7 878.5 53.3L900 53L900 0L878.5 0C857 0 814 0 771.2 0C728.3 0 685.7 0 642.8 0C600 0 557 0 514.2 0C471.3 0 428.7 0 385.8 0C343 0 300 0 257.2 0C214.3 0 171.7 0 128.8 0C86 0 43 0 21.5 0L0 0Z" fill="#9677ff"></path></svg>