<svg id="visual" viewBox="0 0 960 540" width="960" height="540" xmlns="http://www.w3.org/2000/svg" xmlns:xlink="http://www.w3.org/1999/xlink" version="1.1"><rect x="0" y="0" width="960" height="540" fill="#7881B0"></rect><path d="M0 150L22.8 156.2C45.7 162.3 91.3 174.7 137 179.2C182.7 183.7 228.3 180.3 274 180.3C319.7 180.3 365.3 183.7 411.2 177.7C457 171.7 503 156.3 548.8 156.7C594.7 157 640.3 173 686 172.7C731.7 172.3 777.3 155.7 823 158.5C868.7 161.3 914.3 183.7 937.2 194.8L960 206L960 0L937.2 0C914.3 0 868.7 0 823 0C777.3 0 731.7 0 686 0C640.3 0 594.7 0 548.8 0C503 0 457 0 411.2 0C365.3 0 319.7 0 274 0C228.3 0 182.7 0 137 0C91.3 0 45.7 0 22.8 0L0 0Z" fill="#a4b6ff"></path><path d="M0 65L22.8 64.7C45.7 64.3 91.3 63.7 137 72C182.7 80.3 228.3 97.7 274 97.2C319.7 96.7 365.3 78.3 411.2 77.5C457 76.7 503 93.3 548.8 94.8C594.7 96.3 640.3 82.7 686 84.3C731.7 86 777.3 103 823 100.8C868.7 98.7 914.3 77.3 937.2 66.7L960 56L960 0L937.2 0C914.3 0 868.7 0 823 0C777.3 0 731.7 0 686 0C640.3 0 594.7 0 548.8 0C503 0 457 0 411.2 0C365.3 0 319.7 0 274 0C228.3 0 182.7 0 137 0C91.3 0 45.7 0 22.8 0L0 0Z" fill="#e2eafc"></path></svg>