<svg id="visual" viewBox="0 0 960 300" width="960" height="300" xmlns="http://www.w3.org/2000/svg" xmlns:xlink="http://www.w3.org/1999/xlink" version="1.1"><path d="M0 145L17.8 150.2C35.7 155.3 71.3 165.7 106.8 172.2C142.3 178.7 177.7 181.3 213.2 167.3C248.7 153.3 284.3 122.7 320 107.7C355.7 92.7 391.3 93.3 426.8 93.3C462.3 93.3 497.7 92.7 533.2 107.2C568.7 121.7 604.3 151.3 640 163.8C675.7 176.3 711.3 171.7 746.8 157.5C782.3 143.3 817.7 119.7 853.2 123.2C888.7 126.7 924.3 157.3 942.2 172.7L960 188L960 0L942.2 0C924.3 0 888.7 0 853.2 0C817.7 0 782.3 0 746.8 0C711.3 0 675.7 0 640 0C604.3 0 568.7 0 533.2 0C497.7 0 462.3 0 426.8 0C391.3 0 355.7 0 320 0C284.3 0 248.7 0 213.2 0C177.7 0 142.3 0 106.8 0C71.3 0 35.7 0 17.8 0L0 0Z" fill="#728dfe"></path><path d="M0 111L17.8 102.7C35.7 94.3 71.3 77.7 106.8 77.7C142.3 77.7 177.7 94.3 213.2 95.3C248.7 96.3 284.3 81.7 320 78.8C355.7 76 391.3 85 426.8 87.5C462.3 90 497.7 86 533.2 80.3C568.7 74.7 604.3 67.3 640 72.2C675.7 77 711.3 94 746.8 95.7C782.3 97.3 817.7 83.7 853.2 71.7C888.7 59.7 924.3 49.3 942.2 44.2L960 39L960 0L942.2 0C924.3 0 888.7 0 853.2 0C817.7 0 782.3 0 746.8 0C711.3 0 675.7 0 640 0C604.3 0 568.7 0 533.2 0C497.7 0 462.3 0 426.8 0C391.3 0 355.7 0 320 0C284.3 0 248.7 0 213.2 0C177.7 0 142.3 0 106.8 0C71.3 0 35.7 0 17.8 0L0 0Z" fill="#e2eafc"></path></svg>