<svg id="visual" viewBox="0 0 960 300" width="960" height="300" xmlns="http://www.w3.org/2000/svg" xmlns:xlink="http://www.w3.org/1999/xlink" version="1.1"><path d="M0 109L12.3 113C24.7 117 49.3 125 74 134.2C98.7 143.3 123.3 153.7 148 157.2C172.7 160.7 197.3 157.3 221.8 150.8C246.3 144.3 270.7 134.7 295.2 131.2C319.7 127.7 344.3 130.3 369 133.3C393.7 136.3 418.3 139.7 443 139.2C467.7 138.7 492.3 134.3 517 137.8C541.7 141.3 566.3 152.7 591 151.5C615.7 150.3 640.3 136.7 664.8 130.2C689.3 123.7 713.7 124.3 738.2 122.7C762.7 121 787.3 117 812 113.5C836.7 110 861.3 107 886 107.2C910.7 107.3 935.3 110.7 947.7 112.3L960 114L960 301L947.7 301C935.3 301 910.7 301 886 301C861.3 301 836.7 301 812 301C787.3 301 762.7 301 738.2 301C713.7 301 689.3 301 664.8 301C640.3 301 615.7 301 591 301C566.3 301 541.7 301 517 301C492.3 301 467.7 301 443 301C418.3 301 393.7 301 369 301C344.3 301 319.7 301 295.2 301C270.7 301 246.3 301 221.8 301C197.3 301 172.7 301 148 301C123.3 301 98.7 301 74 301C49.3 301 24.7 301 12.3 301L0 301Z" fill="#728dfe"></path><path d="M0 208L12.3 202.2C24.7 196.3 49.3 184.7 74 175.8C98.7 167 123.3 161 148 159.7C172.7 158.3 197.3 161.7 221.8 167.2C246.3 172.7 270.7 180.3 295.2 182.8C319.7 185.3 344.3 182.7 369 175.2C393.7 167.7 418.3 155.3 443 150.5C467.7 145.7 492.3 148.3 517 156.7C541.7 165 566.3 179 591 186.7C615.7 194.3 640.3 195.7 664.8 189.2C689.3 182.7 713.7 168.3 738.2 171.3C762.7 174.3 787.3 194.7 812 202.3C836.7 210 861.3 205 886 193.3C910.7 181.7 935.3 163.3 947.7 154.2L960 145L960 301L947.7 301C935.3 301 910.7 301 886 301C861.3 301 836.7 301 812 301C787.3 301 762.7 301 738.2 301C713.7 301 689.3 301 664.8 301C640.3 301 615.7 301 591 301C566.3 301 541.7 301 517 301C492.3 301 467.7 301 443 301C418.3 301 393.7 301 369 301C344.3 301 319.7 301 295.2 301C270.7 301 246.3 301 221.8 301C197.3 301 172.7 301 148 301C123.3 301 98.7 301 74 301C49.3 301 24.7 301 12.3 301L0 301Z" fill="#94adff"></path><path d="M0 222L12.3 216.7C24.7 211.3 49.3 200.7 74 195.7C98.7 190.7 123.3 191.3 148 195.2C172.7 199 197.3 206 221.8 208C246.3 210 270.7 207 295.2 204.8C319.7 202.7 344.3 201.3 369 199.2C393.7 197 418.3 194 443 195.2C467.7 196.3 492.3 201.7 517 202.3C541.7 203 566.3 199 591 197.8C615.7 196.7 640.3 198.3 664.8 200.7C689.3 203 713.7 206 738.2 212.2C762.7 218.3 787.3 227.7 812 233.7C836.7 239.7 861.3 242.3 886 241.2C910.7 240 935.3 235 947.7 232.5L960 230L960 301L947.7 301C935.3 301 910.7 301 886 301C861.3 301 836.7 301 812 301C787.3 301 762.7 301 738.2 301C713.7 301 689.3 301 664.8 301C640.3 301 615.7 301 591 301C566.3 301 541.7 301 517 301C492.3 301 467.7 301 443 301C418.3 301 393.7 301 369 301C344.3 301 319.7 301 295.2 301C270.7 301 246.3 301 221.8 301C197.3 301 172.7 301 148 301C123.3 301 98.7 301 74 301C49.3 301 24.7 301 12.3 301L0 301Z" fill="#b9ccfe"></path><path d="M0 244L12.3 241.8C24.7 239.7 49.3 235.3 74 238.2C98.7 241 123.3 251 148 252.5C172.7 254 197.3 247 221.8 242.8C246.3 238.7 270.7 237.3 295.2 237.2C319.7 237 344.3 238 369 242.8C393.7 247.7 418.3 256.3 443 256.7C467.7 257 492.3 249 517 245.3C541.7 241.7 566.3 242.3 591 246.7C615.7 251 640.3 259 664.8 262.2C689.3 265.3 713.7 263.7 738.2 261.2C762.7 258.7 787.3 255.3 812 255.7C836.7 256 861.3 260 886 258.3C910.7 256.7 935.3 249.3 947.7 245.7L960 242L960 301L947.7 301C935.3 301 910.7 301 886 301C861.3 301 836.7 301 812 301C787.3 301 762.7 301 738.2 301C713.7 301 689.3 301 664.8 301C640.3 301 615.7 301 591 301C566.3 301 541.7 301 517 301C492.3 301 467.7 301 443 301C418.3 301 393.7 301 369 301C344.3 301 319.7 301 295.2 301C270.7 301 246.3 301 221.8 301C197.3 301 172.7 301 148 301C123.3 301 98.7 301 74 301C49.3 301 24.7 301 12.3 301L0 301Z" fill="#e2eafc"></path></svg>